<?xml version="1.0" encoding="UTF-8" standalone="no"?>
<svg
   xmlns:dc="http://purl.org/dc/elements/1.1/"
   xmlns:cc="http://creativecommons.org/ns#"
   xmlns:rdf="http://www.w3.org/1999/02/22-rdf-syntax-ns#"
   xmlns:svg="http://www.w3.org/2000/svg"
   xmlns="http://www.w3.org/2000/svg"
   xmlns:sodipodi="http://sodipodi.sourceforge.net/DTD/sodipodi-0.dtd"
   xmlns:inkscape="http://www.inkscape.org/namespaces/inkscape"
   sodipodi:docname="logo.svg"
   inkscape:version="1.0 (4035a4fb49, 2020-05-01)"
   id="svg8"
   version="1.1"
   viewBox="0 0 175.19064 175.19064"
   height="175.19064mm"
   width="175.19064mm">
  <defs
     id="defs2">
    <clipPath
       id="clipPath877"
       clipPathUnits="userSpaceOnUse">
      <rect
         y="102.6315"
         x="287.84924"
         height="38.754082"
         width="40.892239"
         id="rect879"
         style="fill:#decd87;fill-opacity:0.117166;stroke:#ff0000;stroke-width:0.865;stroke-linecap:round;paint-order:markers stroke fill" />
    </clipPath>
  </defs>
  <sodipodi:namedview
     inkscape:window-maximized="0"
     inkscape:window-y="576"
     inkscape:window-x="3729"
     inkscape:window-height="1208"
     inkscape:window-width="1635"
     inkscape:object-paths="true"
     inkscape:snap-object-midpoints="true"
     inkscape:snap-intersection-paths="true"
     inkscape:snap-midpoints="true"
     showgrid="false"
     inkscape:document-rotation="0"
     inkscape:current-layer="layer1"
     inkscape:document-units="mm"
     inkscape:cy="363.97065"
     inkscape:cx="301.72846"
     inkscape:zoom="0.98994949"
     inkscape:pageshadow="2"
     inkscape:pageopacity="0.0"
     borderopacity="1.0"
     bordercolor="#666666"
     pagecolor="#ffffff"
     id="base" />
  <metadata
     id="metadata5">
    <rdf:RDF>
      <cc:Work
         rdf:about="">
        <dc:format>image/svg+xml</dc:format>
        <dc:type
           rdf:resource="http://purl.org/dc/dcmitype/StillImage" />
        <dc:title></dc:title>
      </cc:Work>
    </rdf:RDF>
  </metadata>
  <g
     transform="translate(-38.021354,-4.8799355)"
     id="layer1"
     inkscape:groupmode="layer"
     inkscape:label="Calque 1">
    <circle
       r="85.664497"
       cy="92.475258"
       cx="125.61668"
       id="path881"
       style="fill:none;fill-opacity:0.117166;stroke:#ffffff;stroke-width:3.86165;stroke-linecap:round;stroke-miterlimit:4;stroke-dasharray:none;stroke-opacity:1;paint-order:markers stroke fill" />
    <path
       sodipodi:nodetypes="cc"
       id="path910"
       d="m 125.61667,6.8107554 c 21.93218,36.1235856 17.82,55.5997156 0,85.7988956"
       style="fill:none;stroke:#ffffff;stroke-width:3.86165;stroke-linecap:butt;stroke-linejoin:miter;stroke-miterlimit:4;stroke-dasharray:none;stroke-opacity:1" />
    <path
       style="fill:none;stroke:#ffffff;stroke-width:3.86165;stroke-linecap:butt;stroke-linejoin:miter;stroke-miterlimit:4;stroke-dasharray:none;stroke-opacity:1"
       d="m 125.61668,92.340857 c -21.93218,36.123583 -17.81999,55.599713 0,85.798893"
       id="path910-0"
       sodipodi:nodetypes="cc" />
    <path
       sodipodi:nodetypes="czccc"
       id="path929"
       d="m 40.886762,79.855909 c 13.772874,12.753721 26.779012,10.108179 32.995784,2.427337 6.216772,-7.680841 -1.349034,-19.404907 -16.384627,-18.448833 0,0 2.651408,-4.660022 10.062995,-6.96669 27.346198,-6.712624 40.402116,24.976911 63.351236,26.265522"
       style="fill:none;stroke:#ffffff;stroke-width:3.86165;stroke-linecap:butt;stroke-linejoin:miter;stroke-miterlimit:4;stroke-dasharray:none;stroke-opacity:1" />
    <path
       sodipodi:nodetypes="csc"
       id="path931"
       d="M 47.007034,126.51832 C 54.179364,113.09813 60.632765,102.37256 74.262147,99.272624 91.6604,95.315471 99.7152,117.82023 115.17745,113.0274"
       style="fill:none;stroke:#ffffff;stroke-width:3.86165;stroke-linecap:butt;stroke-linejoin:miter;stroke-miterlimit:4;stroke-dasharray:none;stroke-opacity:1" />
    <path
       style="fill:none;stroke:#ffffff;stroke-width:3.86165;stroke-linecap:butt;stroke-linejoin:miter;stroke-miterlimit:4;stroke-dasharray:none;stroke-opacity:1"
       d="m 57.978991,145.04473 c 7.17233,-13.42019 9.962561,-24.24928 23.642754,-27.11668 12.108729,-2.53801 18.543875,13.2518 29.232655,13.10342"
       id="path931-1"
       sodipodi:nodetypes="csc" />
    <path
       sodipodi:nodetypes="csc"
       id="path931-1-6"
       d="m 77.160339,163.11795 c 6.716202,-9.77116 3.798566,-19.33115 12.370109,-21.74242 11.909592,-3.35029 14.700552,6.50297 22.561332,6.26336"
       style="fill:none;stroke:#ffffff;stroke-width:3.86165;stroke-linecap:butt;stroke-linejoin:miter;stroke-miterlimit:4;stroke-dasharray:none;stroke-opacity:1" />
    <path
       d="m 129.74769,123.45815 a 22.401494,22.401494 0 0 0 -16.14312,25.07927 22.401494,22.401494 0 0 0 23.0817,18.88902 22.401494,22.401494 0 0 0 21.39046,-20.78481 l -3.62694,-7.50332 -7.18304,-1.34302 -3.14002,-2.56929 v -0.001 l -1.71918,-6.39478 -5.01685,0.72937 -0.15565,0.026 -3.17395,-2.59823 0.41009,-2.62716 z"
       style="opacity:1;fill:#ffffff;fill-opacity:1;stroke:#ffffff;stroke-width:3.86166;stroke-linecap:round;stroke-miterlimit:4;stroke-dasharray:none;stroke-opacity:1;paint-order:markers stroke fill"
       id="path963" />
    <path
       id="path969"
       d="m 136.9698,119.05189 11.35313,-98.049725 10.21021,-2.735816 z"
       style="fill:#ffffff;fill-opacity:1;stroke:#ffffff;stroke-width:0.510864px;stroke-linecap:butt;stroke-linejoin:miter;stroke-opacity:1" />
    <path
       id="path973"
       d="m 141.95171,120.61946 40.86917,-79.913819 7.29806,9.12258 z"
       style="fill:#ffffff;fill-opacity:1;stroke:#ffffff;stroke-width:0.510864px;stroke-linecap:butt;stroke-linejoin:miter;stroke-opacity:1" />
    <path
       id="path975"
       d="m 151.16121,124.98648 50.83104,-45.928556 -0.25801,23.222306 z"
       style="fill:#ffffff;fill-opacity:1;stroke:#ffffff;stroke-width:0.510864px;stroke-linecap:butt;stroke-linejoin:miter;stroke-opacity:1" />
    <path
       id="path977"
       d="m 163.03038,134.53343 34.31742,-15.73956 -8.25683,22.70625 z"
       style="fill:#ffffff;fill-opacity:1;stroke:#ffffff;stroke-width:0.510864px;stroke-linecap:butt;stroke-linejoin:miter;stroke-opacity:1" />
    <path
       id="path979"
       d="m 151.41924,82.670285 13.67535,-57.281683 11.09509,9.030894 z"
       style="fill:#ffffff;fill-opacity:1;stroke:#ffffff;stroke-width:0.510864px;stroke-linecap:butt;stroke-linejoin:miter;stroke-opacity:1" />
    <path
       id="path981"
       d="m 161.74026,103.57036 32.51123,-49.024866 2.32222,17.287715 z"
       style="fill:#ffffff;fill-opacity:1;stroke:#ffffff;stroke-width:0.510864px;stroke-linecap:butt;stroke-linejoin:miter;stroke-opacity:1" />
  </g>
</svg>
